<svg width="379" height="56" viewBox="0 0 379 56" fill="none" xmlns="http://www.w3.org/2000/svg">
<path d="M63.4897 42.4746L68.0552 36.6493L82.3858 55.3672H96.7789L75.4693 27.1895L96.7789 0H82.3858L63.4897 24.2825V0H51.75V55.3672H63.4897V42.4746Z" fill="white"/>
<path d="M149.324 35.5141L149.244 55.3672H159.938V0H149.324V21.3559C146.429 17.3484 142.248 15.3446 136.78 15.3446C133.886 15.3446 131.179 15.8719 128.659 16.9266C126.14 17.9812 123.942 19.4313 122.066 21.2768C120.189 23.1224 118.688 25.2844 117.563 27.7627C116.491 30.2411 115.955 32.8776 115.955 35.6723C115.955 38.467 116.491 41.1036 117.563 43.5819C118.688 46.0603 120.189 48.2222 122.066 50.0678C123.942 51.9134 126.14 53.3635 128.659 54.4181C131.179 55.4727 133.886 56 136.78 56C140.586 56 143.803 54.9981 146.43 52.9944L146.51 52.9153L142.57 45.7966H142.409C141.766 46.113 141.069 46.3239 140.318 46.4294C139.568 46.5348 138.817 46.5876 138.067 46.5876C136.512 46.5876 135.065 46.2976 133.725 45.7175C132.385 45.1375 131.205 44.3729 130.187 43.4237C129.222 42.4218 128.445 41.2618 127.855 39.9435C127.265 38.6252 126.971 37.2015 126.971 35.6723C126.971 34.1431 127.265 32.7194 127.855 31.4011C128.445 30.0829 129.222 28.9228 130.187 27.9209C131.205 26.919 132.385 26.1544 133.725 25.6271C135.065 25.0471 136.512 24.7571 138.067 24.7571C139.622 24.7571 141.069 25.0471 142.409 25.6271C143.803 26.1544 144.982 26.919 145.947 27.9209C146.966 28.8701 147.77 30.0038 148.359 31.322C149.003 32.6403 149.324 34.0377 149.324 35.5141Z" fill="white"/>
<path d="M188.538 45.4011L192.398 52.2825V52.3616C189.61 54.7872 186.152 56 182.025 56C175.485 56 170.848 54.2599 168.114 50.7797C165.595 47.6685 164.335 42.7119 164.335 35.9096V15.8192H175.351V35.9096C175.351 37.3333 175.378 38.7043 175.431 40.0226C175.539 41.3409 175.833 42.5009 176.316 43.5028C176.852 44.5047 177.656 45.322 178.728 45.9548C179.8 46.5348 181.328 46.8249 183.311 46.8249C184.223 46.8249 185.107 46.693 185.965 46.4294C186.823 46.1657 187.627 45.823 188.377 45.4011H188.538Z" fill="white"/>
<path d="M210.361 0L210.281 55.3672H220.975V0H210.361Z" fill="white"/>
<path d="M247.861 28.7119L242.876 19.9322H253.811V28.7119H247.861Z" fill="white"/>
<path d="M241.509 41.8418C241.509 43.0546 241.937 44.0829 242.795 44.9265C243.706 45.7702 244.779 46.1921 246.011 46.1921H253.811V55.3672H246.011C243.921 55.3672 241.937 54.9981 240.061 54.2599C238.239 53.4689 236.63 52.4143 235.237 51.096C233.896 49.725 232.824 48.1431 232.02 46.3503C231.216 44.5574 230.814 42.6328 230.814 40.5763V28.7119H225.025V19.9322H230.814V5.61582H241.509V41.8418Z" fill="white"/>
<path d="M291.397 1.58192C288.985 0.527308 286.412 0 283.678 0H258.269V55.3672H269.446V9.57062H283.678C284.857 9.57062 285.956 9.83428 286.975 10.3616C288.047 10.8889 288.958 11.5744 289.709 12.4181C290.459 13.2618 291.049 14.2373 291.478 15.3446C291.96 16.3992 292.201 17.5066 292.201 18.6667C292.201 20.0377 291.96 21.3032 291.478 22.4633C291.049 23.5706 290.459 24.5461 289.709 25.3898C288.958 26.1808 288.047 26.8136 286.975 27.2881C285.956 27.71 284.857 27.9209 283.678 27.9209H271.295L277.406 38.9943H283.678C286.412 38.9943 288.985 38.4934 291.397 37.4915C293.809 36.4369 295.927 35.0395 297.749 33.2994C299.572 31.5593 300.993 29.5028 302.011 27.1299C303.083 24.7571 303.619 22.226 303.619 19.5367C303.619 16.8475 303.083 14.3164 302.011 11.9435C300.993 9.57062 299.572 7.51413 297.749 5.77401C295.927 3.98117 293.809 2.58381 291.397 1.58192Z" fill="white"/>
<path fill-rule="evenodd" clip-rule="evenodd" d="M326.024 15.1864C328.919 15.1864 331.626 15.7401 334.145 16.8475C336.665 17.9021 338.862 19.3522 340.739 21.1977C342.615 23.0433 344.089 25.2053 345.161 27.6836C346.287 30.162 346.85 32.7985 346.85 35.5932C346.85 38.388 346.287 41.0245 345.161 43.5028C344.089 45.9812 342.615 48.1431 340.739 49.9887C338.862 51.8343 336.665 53.3107 334.145 54.4181C331.626 55.4727 328.919 56 326.024 56C323.129 56 320.422 55.4727 317.903 54.4181C315.383 53.3107 313.185 51.8343 311.309 49.9887C309.433 48.1431 307.932 45.9812 306.806 43.5028C305.734 41.0245 305.198 38.388 305.198 35.5932C305.198 32.7985 305.734 30.162 306.806 27.6836C307.932 25.2053 309.433 23.0433 311.309 21.1977C313.185 19.3522 315.383 17.9021 317.903 16.8475C320.422 15.7401 323.129 15.1864 326.024 15.1864ZM326.024 46.5876C327.364 46.5876 328.597 46.2976 329.723 45.7175C330.902 45.1375 331.92 44.3465 332.778 43.3446C333.69 42.29 334.386 41.1036 334.869 39.7853C335.405 38.4143 335.673 36.9379 335.673 35.3559C335.673 33.8795 335.405 32.4821 334.869 31.1638C334.386 29.7928 333.69 28.6328 332.778 27.6836C331.92 26.6817 330.902 25.8908 329.723 25.3107C328.597 24.7307 327.364 24.4407 326.024 24.4407C324.684 24.4407 323.424 24.7307 322.245 25.3107C321.065 25.8908 320.02 26.6817 319.109 27.6836C318.251 28.6328 317.554 29.7928 317.018 31.1638C316.536 32.4821 316.294 33.8795 316.294 35.3559C316.294 36.9379 316.536 38.4143 317.018 39.7853C317.554 41.1036 318.251 42.29 319.109 43.3446C320.02 44.3465 321.065 45.1375 322.245 45.7175C323.424 46.2976 324.684 46.5876 326.024 46.5876Z" fill="white"/>
<path d="M367.886 19.9322L372.871 28.7119H378.822V19.9322H367.886Z" fill="white"/>
<path d="M367.806 44.9265C366.948 44.0829 366.519 43.0546 366.519 41.8418V5.61582H355.825V19.9322H350.035V28.7119H355.825V40.5763C355.825 42.6328 356.227 44.5574 357.031 46.3503C357.835 48.1431 358.907 49.725 360.247 51.096C361.641 52.4143 363.249 53.4689 365.072 54.2599C366.948 54.9981 368.931 55.3672 371.022 55.3672H378.822V46.1921H371.022C369.789 46.1921 368.717 45.7702 367.806 44.9265Z" fill="white"/>
<path d="M101.211 55.3672V15.8192H111.905V55.3672H101.211Z" fill="white"/>
<path d="M101.211 0H111.905V9.25424H101.211V0Z" fill="white"/>
<path d="M205.424 15.8192V55.6045H194.408V15.8192H205.424Z" fill="white"/>
<path d="M37.2613 37.3359C37.2613 39.7873 36.7794 42.2146 35.8432 44.4794C34.9069 46.7441 33.5345 48.8019 31.8045 50.5353C30.0745 52.2686 28.0207 53.6436 25.7603 54.5817C23.4999 55.5198 21.0773 56.0026 18.6307 56.0026C16.184 56.0026 13.7614 55.5198 11.501 54.5817C9.24064 53.6436 7.18681 52.2686 5.45679 50.5353C3.72678 48.8019 2.35445 46.7441 1.41817 44.4794C0.481896 42.2146 -2.1389e-07 39.7873 0 37.3359L18.6307 37.3359H37.2613Z" fill="#F6CC01"/>
<path d="M0 8.43011C0 3.77429 3.76701 0 8.41385 0C13.0607 0 16.8277 3.77429 16.8277 8.43011V25.2903C16.8277 29.9461 13.0607 33.7204 8.41385 33.7204C3.76701 33.7204 0 29.9461 0 25.2903V8.43011Z" fill="white"/>
<path d="M20.4336 25.2895C20.4336 20.6337 24.2006 16.8594 28.8474 16.8594C33.4943 16.8594 37.2613 20.6337 37.2613 25.2895C37.2613 29.9453 33.4943 33.7196 28.8474 33.7196C24.2006 33.7196 20.4336 29.9453 20.4336 25.2895Z" fill="white"/>
</svg>
